<svg width="99" height="80" viewBox="0 0 99 80" fill="none" xmlns="http://www.w3.org/2000/svg">
<g clip-path="url(#clip0_138_119)">
<path d="M93.5171 57.3857H98.6218V79.2857H93.5171V57.3857Z" fill="white"/>
<path d="M82.2521 74.7447C83.186 74.7447 83.9268 74.46 84.4743 73.8911C85.0325 73.3222 85.3114 72.5386 85.3114 71.54V57.3857H90.3839V71.8461C90.3839 73.4136 90.0296 74.7554 89.321 75.8718C88.6235 76.9882 87.6571 77.8365 86.4225 78.4161C85.1882 78.9957 83.7871 79.2857 82.2196 79.2857H78.3871V74.7447H82.2521Z" fill="white"/>
<path d="M67.0418 79.7847C64.8839 79.7847 62.8925 79.275 61.0675 78.255C59.2425 77.2243 57.7932 75.829 56.7197 74.0683C55.6568 72.3075 55.1257 70.3861 55.1257 68.3032C55.1257 66.21 55.6568 64.2882 56.7197 62.5386C57.7932 60.7886 59.2425 59.404 61.0675 58.384C62.8925 57.3533 64.8839 56.8379 67.0418 56.8379C69.1889 56.8379 71.175 57.3533 73 58.384C74.825 59.404 76.2689 60.7886 77.3314 62.5386C78.405 64.2882 78.9418 66.21 78.9418 68.3032C78.9418 70.3861 78.405 72.3075 77.3314 74.0683C76.2689 75.829 74.825 77.2243 73 78.255C71.175 79.275 69.1889 79.7847 67.0418 79.7847ZM67.0418 75.115C68.2979 75.115 69.4411 74.825 70.4718 74.2454C71.5129 73.655 72.3343 72.8443 72.9354 71.814C73.5475 70.7725 73.8532 69.6079 73.8532 68.3193C73.8532 67.0204 73.5475 65.8557 72.9354 64.825C72.3343 63.784 71.5129 62.9732 70.4718 62.3936C69.4411 61.8032 68.2979 61.5079 67.0418 61.5079C65.7857 61.5079 64.6372 61.8032 63.5957 62.3936C62.5543 62.9732 61.7332 63.784 61.1322 64.825C60.5307 65.8557 60.2304 67.0204 60.2304 68.3193C60.2304 69.6079 60.5307 70.7725 61.1322 71.814C61.7439 72.8443 62.5704 73.655 63.6118 74.2454C64.6532 74.825 65.7964 75.115 67.0418 75.115Z" fill="white"/>
<path d="M44.489 61.9268H38.354V57.3857H55.6808V61.9268H49.5615V79.2857H44.489V61.9268Z" fill="white"/>
<path d="M27.2175 79.785C25.4032 79.785 23.7607 79.42 22.29 78.69C20.83 77.96 19.6813 76.9186 18.8439 75.5657C18.0066 74.2132 17.5879 72.635 17.5879 70.8315V57.3857H22.6764V70.4611C22.6764 71.3629 22.8536 72.1682 23.2078 72.8768C23.5621 73.5854 24.0774 74.1436 24.7537 74.5515C25.4408 74.9593 26.262 75.1632 27.2175 75.1632C28.1514 75.1632 28.9566 74.9593 29.6329 74.5515C30.32 74.1436 30.8406 73.5854 31.1949 72.8768C31.5492 72.1682 31.7263 71.3629 31.7263 70.4611V57.3857H36.8311V70.8315C36.8311 72.56 36.4336 74.1057 35.6393 75.4693C34.8449 76.8218 33.7177 77.8793 32.2577 78.6415C30.8084 79.4036 29.1284 79.785 27.2175 79.785Z" fill="white"/>
<path d="M0.299942 57.3857H15.7427V61.9268H5.40461V66.9507H14.2773V71.2182H5.40461V79.2857H0.299942V57.3857Z" fill="white"/>
<path d="M34.0063 0H65.2346L69.5982 7.18682H29.6429L34.0063 0Z" fill="#FC3F1D"/>
<path d="M34.0063 14.3735H65.1493L60.6621 21.4748H47.61L54.0268 31.9983L49.6632 38.9285L34.0063 14.3735Z" fill="#FC3F1D"/>
</g>
<defs>
<clipPath id="clip0_138_119">
<rect width="98.9286" height="80" fill="white"/>
</clipPath>
</defs>
</svg>
