<svg width="40" height="14" viewBox="0 0 40 14" fill="none" xmlns="http://www.w3.org/2000/svg">
<path d="M26.0618 0.916504C23.2253 0.916504 20.6786 2.40003 20.6786 5.12239C20.6786 8.25768 25.1773 8.4718 25.1773 10.0318C25.1773 10.6894 24.4148 11.2859 23.1338 11.2859C21.3039 11.2859 19.9314 10.46 19.9314 10.46L19.3519 13.213C19.3519 13.213 20.9226 13.9165 23.0271 13.9165C26.138 13.9165 28.578 12.3718 28.578 9.58827C28.578 6.28474 24.0641 6.07062 24.0641 4.61768C24.0641 4.09768 24.6893 3.5318 25.9703 3.5318C27.419 3.5318 28.6085 4.12827 28.6085 4.12827L29.188 1.46709C29.1727 1.46709 27.8765 0.916504 26.0618 0.916504ZM0.0762486 1.11533L0 1.51297C0 1.51297 1.18948 1.72709 2.27221 2.17062C3.65993 2.67533 3.75143 2.96592 3.99543 3.86827L6.54213 13.7024H9.95806L15.1887 1.11533H11.788L8.41784 9.68003L7.04537 2.41533C6.92337 1.58945 6.28288 1.11533 5.4899 1.11533H0.0762486ZM16.5612 1.11533L13.8925 13.7024H17.1407L19.7941 1.11533H16.5612ZM34.6474 1.11533C33.8696 1.11533 33.4579 1.52827 33.1529 2.26239L28.395 13.7024H31.7957L32.4514 11.7906H36.5993L36.9958 13.7024H40L37.3923 1.11533H34.6474ZM35.0896 4.52592L36.0961 9.2518H33.3969L35.0896 4.52592Z" fill="#1434CB"/>
</svg>
