<svg width="41" height="25" viewBox="0 0 41 25" fill="none" xmlns="http://www.w3.org/2000/svg">
<path d="M25.7571 2.65723H14.8848V22.1694H25.7571V2.65723Z" fill="#FF5F00"/>
<path d="M15.5751 12.4134C15.5751 8.6213 17.3354 5.00156 20.3037 2.65735C14.9193 -1.58292 7.11892 -0.652131 2.87355 4.76024C-1.37181 10.1381 -0.439902 17.9292 4.97898 22.1695C9.50046 25.7203 15.8167 25.7203 20.3382 22.1695C17.3354 19.8253 15.5751 16.2055 15.5751 12.4134Z" fill="#EB001B"/>
<path d="M40.4261 12.4134C40.4261 19.2737 34.8691 24.824 28.0006 24.824C25.2049 24.824 22.5127 23.8932 20.3383 22.1695C25.7226 17.9292 26.6545 10.1381 22.4092 4.72577C21.7879 3.96735 21.0976 3.2434 20.3383 2.65735C25.7226 -1.58292 33.5576 -0.652131 37.7684 4.76024C39.4942 6.93209 40.4261 9.62104 40.4261 12.4134Z" fill="#F79E1B"/>
<path d="M39.2525 20.1013V19.6876H39.4251V19.6187H39.0109V19.6876H39.1835V20.1013H39.2525ZM40.0464 20.1013V19.6187H39.9083L39.7703 19.9634L39.6322 19.6187H39.4941V20.1013H39.5977V19.7221L39.7357 20.0323H39.8393L39.9773 19.7221V20.1013H40.0464Z" fill="#F79E1B"/>
</svg>
