<svg width="25" height="25" viewBox="0 0 25 25" fill="none" xmlns="http://www.w3.org/2000/svg">
<path d="M10.9937 6.49999L7.46977 2.43228C7.06352 1.96353 6.31873 1.96562 5.84685 2.43853L2.94894 5.34166C2.08644 6.2052 1.83956 7.48749 2.33852 8.51562C5.31937 14.6875 10.2969 19.672 16.4646 22.6614C17.4916 23.1604 18.7729 22.9135 19.6354 22.05L22.5604 19.1198C23.0344 18.6458 23.0354 17.8969 22.5625 17.4906L18.4791 13.9854C18.0521 13.6187 17.3885 13.6667 16.9604 14.0958L15.5396 15.5187C15.4668 15.595 15.3711 15.6452 15.267 15.6618C15.1629 15.6783 15.0563 15.6603 14.9635 15.6104C12.6411 14.273 10.7146 12.344 9.38019 10.0198C9.33021 9.92681 9.31212 9.82002 9.32868 9.71578C9.34524 9.61154 9.39553 9.51561 9.47185 9.4427L10.8885 8.02499C11.3177 7.59374 11.3646 6.92812 10.9937 6.49999Z" stroke="#D9D9D9" stroke-width="2" stroke-linecap="round" stroke-linejoin="round"/>
</svg>
