<svg width="33" height="33" viewBox="0 0 33 33" fill="none" xmlns="http://www.w3.org/2000/svg">
<path d="M18.036 0.0909843L0.505355 15.3896C0.346725 15.5278 0.219506 15.6988 0.132315 15.8909C0.0451244 16.0829 0 16.2916 0 16.5027C0 16.7138 0.0451244 16.9225 0.132315 17.1146C0.219506 17.3066 0.346725 17.4776 0.505355 17.6159L18.036 32.9098C18.0888 32.9561 18.1537 32.986 18.223 32.9962C18.2923 33.0063 18.3631 32.9962 18.4268 32.9671C18.4906 32.9379 18.5446 32.891 18.5826 32.8318C18.6206 32.7726 18.6408 32.7037 18.6409 32.6333V28.8997C18.6409 28.6876 18.5493 28.4848 18.3889 28.3419L6.82554 18.252L32.6333 18.252C32.835 18.252 33 18.086 33 17.8832V15.1176C33 14.9148 32.835 14.7488 32.6333 14.7488L6.82554 14.7488L18.3889 4.65889C18.5493 4.52061 18.6409 4.31779 18.6409 4.10115V0.367546C18.6409 0.0541077 18.2743 -0.11644 18.036 0.0909843Z" fill="#A9A9A9" fill-opacity="0.45"/>
</svg>
