<svg width="40" height="36" viewBox="0 0 40 36" fill="none" xmlns="http://www.w3.org/2000/svg">
<g clip-path="url(#clip0_134_82)">
<path d="M36.675 20.9249L39.9578 6.48049C40.1949 5.43757 39.4022 4.44444 38.3326 4.44444H11.0561L10.4196 1.33264C10.261 0.557014 9.57847 0 8.78674 0H1.66667C0.746181 0 0 0.746181 0 1.66667V2.77778C0 3.69826 0.746181 4.44444 1.66667 4.44444H6.51965L11.398 28.2941C10.2309 28.9653 9.44444 30.2238 9.44444 31.6667C9.44444 33.8144 11.1856 35.5556 13.3333 35.5556C15.4811 35.5556 17.2222 33.8144 17.2222 31.6667C17.2222 30.5782 16.7745 29.5948 16.0539 28.8889H30.6127C29.8922 29.5948 29.4444 30.5782 29.4444 31.6667C29.4444 33.8144 31.1856 35.5556 33.3333 35.5556C35.4811 35.5556 37.2222 33.8144 37.2222 31.6667C37.2222 30.1269 36.3272 28.7964 35.0292 28.1663L35.4124 26.4805C35.6494 25.4376 34.8567 24.4444 33.7872 24.4444H15.147L14.6925 22.2222H35.0498C35.828 22.2222 36.5026 21.6838 36.675 20.9249Z" fill="black"/>
</g>
<defs>
<clipPath id="clip0_134_82">
<rect width="40" height="35.5556" fill="white"/>
</clipPath>
</defs>
</svg>
