<svg width="33" height="33" viewBox="0 0 33 33" fill="none" xmlns="http://www.w3.org/2000/svg">
<path d="M14.964 32.909L32.4946 17.6104C32.6533 17.4722 32.7805 17.3012 32.8677 17.1091C32.9549 16.9171 33 16.7084 33 16.4973C33 16.2862 32.9549 16.0775 32.8677 15.8854C32.7805 15.6934 32.6533 15.5224 32.4946 15.3841L14.964 0.0901615C14.9112 0.0439462 14.8463 0.0139801 14.777 0.00383316C14.7077 -0.0063138 14.6369 0.00378579 14.5732 0.0329288C14.5094 0.0620718 14.4554 0.10903 14.4174 0.16821C14.3794 0.22739 14.3592 0.296298 14.3591 0.366725V4.10033C14.3591 4.31236 14.4507 4.51518 14.6111 4.65807L26.1745 14.748L0.366653 14.748C0.164993 14.748 0 14.914 0 15.1168V17.8824C0 18.0852 0.164993 18.2512 0.366653 18.2512L26.1745 18.2512L14.6111 28.3411C14.4507 28.4794 14.3591 28.6822 14.3591 28.8988V32.6325C14.3591 32.9459 14.7257 33.1164 14.964 32.909Z" fill="white" fill-opacity="0.45"/>
</svg>
