<svg width="146" height="36" viewBox="0 0 146 36" fill="none" xmlns="http://www.w3.org/2000/svg">
<g clip-path="url(#clip0_404_4334)">
<path d="M141.181 7.84961H145.881V28.1022H141.181V7.84961Z" fill="white"/>
<path d="M130.809 23.9027C131.669 23.9027 132.351 23.6396 132.855 23.1135C133.369 22.5873 133.626 21.8626 133.626 20.9393V7.84961H138.296V21.2223C138.296 22.6717 137.97 23.9126 137.317 24.9452C136.675 25.9776 135.785 26.7619 134.649 27.298C133.512 27.8341 132.222 28.1022 130.779 28.1022H127.25V23.9027H130.809Z" fill="white"/>
<path d="M116.804 28.5633C114.817 28.5633 112.984 28.0917 111.304 27.1486C109.623 26.1955 108.289 24.9049 107.3 23.2768C106.322 21.6486 105.833 19.8716 105.833 17.9456C105.833 16.0097 106.322 14.2326 107.3 12.6144C108.289 10.9962 109.623 9.7155 111.304 8.77237C112.984 7.81929 114.817 7.34277 116.804 7.34277C118.781 7.34277 120.61 7.81929 122.29 8.77237C123.97 9.7155 125.3 10.9962 126.278 12.6144C127.267 14.2326 127.761 16.0097 127.761 17.9456C127.761 19.8716 127.267 21.6486 126.278 23.2768C125.3 24.9049 123.97 26.1955 122.29 27.1486C120.61 28.0917 118.781 28.5633 116.804 28.5633ZM116.804 24.2447C117.961 24.2447 119.013 23.9767 119.962 23.4406C120.921 22.8945 121.677 22.145 122.231 21.1919C122.794 20.229 123.076 19.1518 123.076 17.9605C123.076 16.7592 122.794 15.6821 122.231 14.729C121.677 13.766 120.921 13.0165 119.962 12.4804C119.013 11.9344 117.961 11.6613 116.804 11.6613C115.648 11.6613 114.59 11.9344 113.631 12.4804C112.673 13.0165 111.917 13.766 111.363 14.729C110.809 15.6821 110.533 16.7592 110.533 17.9605C110.533 19.1518 110.809 20.229 111.363 21.1919C111.926 22.145 112.688 22.8945 113.646 23.4406C114.605 23.9767 115.658 24.2447 116.804 24.2447Z" fill="white"/>
<path d="M96.0394 12.049H90.3907V7.84961H106.344V12.049H100.71V28.1022H96.0394V12.049Z" fill="white"/>
<path d="M80.1372 28.5638C78.4668 28.5638 76.9545 28.2262 75.6004 27.5512C74.2561 26.8761 73.1986 25.9131 72.4275 24.6622C71.6564 23.4113 71.271 21.9519 71.271 20.2841V7.84961H75.9561V19.9416C75.9561 20.7755 76.1192 21.5201 76.4454 22.1753C76.7716 22.8305 77.2461 23.3468 77.8689 23.724C78.5013 24.1013 79.2576 24.2899 80.1372 24.2899C80.9971 24.2899 81.7386 24.1013 82.3611 23.724C82.9937 23.3468 83.4732 22.8305 83.7994 22.1753C84.1256 21.5201 84.2887 20.7755 84.2887 19.9416V7.84961H88.9886V20.2841C88.9886 21.8824 88.623 23.312 87.8913 24.5728C87.16 25.8237 86.1222 26.8016 84.778 27.5065C83.4436 28.2113 81.8968 28.5638 80.1372 28.5638Z" fill="white"/>
<path d="M55.3538 7.84961H69.5723V12.049H60.0537V16.6952H68.2231V20.6415H60.0537V28.1022H55.3538V7.84961Z" fill="white"/>
<path d="M4.0175 0H32.7702L36.7877 6.64616H0L4.0175 0Z" fill="#FC3F1D"/>
<path d="M4.01749 13.292H32.6914L28.5602 19.859H16.5426L22.4507 29.5909L18.4332 35.9997L4.01749 13.292Z" fill="#FC3F1D"/>
</g>
<defs>
<clipPath id="clip0_404_4334">
<rect width="146" height="36" fill="white"/>
</clipPath>
</defs>
</svg>
