<svg width="41" height="25" viewBox="0 0 41 25" fill="none" xmlns="http://www.w3.org/2000/svg">
<path d="M25.5441 2.65723H14.6718V22.1694H25.5441V2.65723Z" fill="#7472BC"/>
<path d="M15.3621 12.4134C15.3621 8.6213 17.1224 5.00156 20.0907 2.65735C14.7063 -1.58292 6.9059 -0.652131 2.66054 4.76024C-1.58482 10.1381 -0.652915 17.9292 4.76596 22.1695C9.28745 25.7203 15.6037 25.7203 20.1252 22.1695C17.1224 19.8253 15.3621 16.2055 15.3621 12.4134Z" fill="#C90120"/>
<path d="M40.213 12.4134C40.213 19.2737 34.6561 24.824 27.7875 24.824C24.9918 24.824 22.2996 23.8932 20.1252 22.1695C25.5095 17.9292 26.4415 10.1381 22.1961 4.72577C21.5748 3.96735 20.8845 3.2434 20.1252 2.65735C25.5095 -1.58292 33.3445 -0.652131 37.5553 4.76024C39.2811 6.93209 40.213 9.62104 40.213 12.4134Z" fill="#5A9FDC"/>
<path d="M39.0395 20.1013V19.6876H39.2121V19.6187H38.7979V19.6876H38.9705V20.1013H39.0395ZM39.8333 20.1013V19.6187H39.6953L39.5572 19.9634L39.4192 19.6187H39.2811V20.1013H39.3846V19.7221L39.5227 20.0323H39.6262L39.7643 19.7221V20.1013H39.8333Z" fill="#5A9FDC"/>
</svg>
