<svg width="67" height="19" viewBox="0 0 67 19" fill="none" xmlns="http://www.w3.org/2000/svg">
<path d="M18.1369 0.107422V0.115556C18.1288 0.115556 15.5688 0.107422 14.8862 2.55533C14.2604 4.79992 12.4969 10.9942 12.4482 11.165H11.9606C11.9606 11.165 10.1564 4.83245 9.52256 2.54719C8.83992 0.0992886 6.27188 0.107422 6.27188 0.107422H0.426056V18.7256H6.27459V7.66792H6.76219L10.1754 18.7255H14.2361L17.6493 7.67605H18.1369V18.7255H23.9854V0.107422H18.1369ZM39.502 0.107422C39.502 0.107422 37.7873 0.26194 36.9827 2.05932L32.8408 11.165H32.3532V0.107422H26.5047V18.7256H32.0282C32.0282 18.7256 33.8242 18.5629 34.6288 16.7738L38.6894 7.66801H39.177V18.7256H45.0256V0.107422H39.502ZM47.626 8.56259V18.7256H53.4746V12.7915H59.8108C62.5739 12.7915 64.9117 11.0268 65.7812 8.5653H47.626V8.56259Z" fill="#4DB45E"/>
<path d="M59.7636 0.107422H46.78C47.4289 3.66242 50.0812 6.51348 53.5096 7.44299C54.3056 7.65969 55.1266 7.76939 55.9512 7.76922H65.9579C66.0471 7.34523 66.0877 6.91309 66.0877 6.46464C66.0878 2.95305 63.2569 0.107422 59.7636 0.107422Z" fill="url(#paint0_linear_491_2881)"/>
<defs>
<linearGradient id="paint0_linear_491_2881" x1="46.7799" y1="3.93831" x2="66.0877" y2="3.93831" gradientUnits="userSpaceOnUse">
<stop offset="0.3" stop-color="#00B4E6"/>
<stop offset="1" stop-color="#088CCB"/>
</linearGradient>
</defs>
</svg>
