<svg width="168" height="40" viewBox="0 0 168 40" fill="none" xmlns="http://www.w3.org/2000/svg">
<g clip-path="url(#clip0_134_44)">
<path d="M162.454 8.72144H167.863V31.2243H162.454V8.72144Z" fill="white"/>
<path d="M150.52 26.5582C151.509 26.5582 152.294 26.2659 152.874 25.6813C153.465 25.0967 153.761 24.2914 153.761 23.2655V8.72144H159.135V23.5799C159.135 25.1904 158.76 26.5693 158.009 27.7165C157.27 28.8637 156.246 29.7351 154.938 30.3308C153.63 30.9264 152.146 31.2243 150.486 31.2243H146.425V26.5582H150.52Z" fill="white"/>
<path d="M134.405 31.7369C132.119 31.7369 130.009 31.2129 128.075 30.165C126.142 29.1061 124.606 27.672 123.469 25.863C122.343 24.0539 121.78 22.0794 121.78 19.9394C121.78 17.7884 122.343 15.8139 123.469 14.0159C124.606 12.2179 126.142 10.7949 128.075 9.74701C130.009 8.68804 132.119 8.15857 134.405 8.15857C136.68 8.15857 138.784 8.68804 140.717 9.74701C142.651 10.7949 144.181 12.2179 145.306 14.0159C146.444 15.8139 147.012 17.7884 147.012 19.9394C147.012 22.0794 146.444 24.0539 145.306 25.863C144.181 27.672 142.651 29.1061 140.717 30.165C138.784 31.2129 136.68 31.7369 134.405 31.7369ZM134.405 26.9385C135.736 26.9385 136.947 26.6407 138.039 26.045C139.142 25.4383 140.012 24.6055 140.649 23.5465C141.297 22.4766 141.621 21.2797 141.621 19.956C141.621 18.6213 141.297 17.4244 140.649 16.3655C140.012 15.2955 139.142 14.4627 138.039 13.867C136.947 13.2603 135.736 12.957 134.405 12.957C133.074 12.957 131.857 13.2603 130.754 13.867C129.651 14.4627 128.781 15.2955 128.144 16.3655C127.507 17.4244 127.188 18.6213 127.188 19.956C127.188 21.2797 127.507 22.4766 128.144 23.5465C128.792 24.6055 129.668 25.4383 130.771 26.045C131.874 26.6407 133.086 26.9385 134.405 26.9385Z" fill="white"/>
<path d="M110.511 13.3875H104.011V8.72144H122.368V13.3875H115.885V31.2243H110.511V13.3875Z" fill="white"/>
<path d="M92.2127 31.7372C90.2906 31.7372 88.5504 31.3621 86.9922 30.612C85.4454 29.8619 84.2286 28.792 83.3413 27.4021C82.454 26.0122 82.0105 24.3907 82.0105 22.5375V8.72144H87.4016V22.157C87.4016 23.0835 87.5893 23.9108 87.9647 24.6389C88.34 25.3669 88.886 25.9405 89.6027 26.3597C90.3303 26.7788 91.2006 26.9884 92.2127 26.9884C93.2022 26.9884 94.0554 26.7788 94.7717 26.3597C95.4997 25.9405 96.0514 25.3669 96.4267 24.6389C96.8021 23.9108 96.9897 23.0835 96.9897 22.157V8.72144H102.398V22.5375C102.398 24.3135 101.977 25.9019 101.135 27.3028C100.294 28.6927 99.0996 29.7792 97.5528 30.5624C96.0173 31.3456 94.2374 31.7372 92.2127 31.7372Z" fill="white"/>
<path d="M63.6947 8.72144H80.0558V13.3875H69.1029V18.5499H78.5033V22.9346H69.1029V31.2243H63.6947V8.72144Z" fill="white"/>
<path d="M4.62288 0H37.7081L42.3311 7.38462H0L4.62288 0Z" fill="#FC3F1D"/>
<path d="M4.62286 14.7692H37.6175L32.8638 22.0659H19.0353L25.8337 32.879L21.2108 39.9999L4.62286 14.7692Z" fill="#FC3F1D"/>
</g>
<defs>
<clipPath id="clip0_134_44">
<rect width="168" height="40" fill="white"/>
</clipPath>
</defs>
</svg>
